<mxfile host="app.diagrams.net" agent="Mozilla/5.0 (Windows NT 10.0; Win64; x64) AppleWebKit/537.36 (KHTML, like Gecko) Chrome/140.0.0.0 Safari/537.36" version="28.1.2">
  <diagram name="Page-1" id="2HzggHuMDgDXwvn4rezj">
    <mxGraphModel dx="584" dy="958" grid="1" gridSize="10" guides="1" tooltips="1" connect="1" arrows="1" fold="1" page="1" pageScale="1" pageWidth="827" pageHeight="1169" math="0" shadow="0">
      <root>
        <mxCell id="0" />
        <mxCell id="1" parent="0" />
        <mxCell id="AOzkv8vw9EmrJet9aBGr-1" value="Client" style="shape=umlActor;verticalLabelPosition=bottom;verticalAlign=top;html=1;outlineConnect=0;dropTarget=0;container=0;collapsible=0;" vertex="1" parent="1">
          <mxGeometry x="20" y="290" width="30" height="60" as="geometry" />
        </mxCell>
        <mxCell id="AOzkv8vw9EmrJet9aBGr-2" value="Buy medicament" style="ellipse;whiteSpace=wrap;html=1;strokeColor=#2D7600;align=center;verticalAlign=middle;fontFamily=Helvetica;fontSize=12;fontColor=#ffffff;fillColor=#60a917;" vertex="1" parent="1">
          <mxGeometry x="404.38" y="490" width="174.38" height="90" as="geometry" />
        </mxCell>
        <mxCell id="AOzkv8vw9EmrJet9aBGr-3" value="operator" style="shape=umlActor;verticalLabelPosition=bottom;verticalAlign=top;html=1;outlineConnect=0;" vertex="1" parent="1">
          <mxGeometry x="50" y="470" width="30" height="60" as="geometry" />
        </mxCell>
        <mxCell id="AOzkv8vw9EmrJet9aBGr-14" value="" style="endArrow=classic;startArrow=classic;html=1;rounded=0;entryX=0;entryY=0.5;entryDx=0;entryDy=0;exitX=0.5;exitY=0.5;exitDx=0;exitDy=0;exitPerimeter=0;curved=1;fillColor=#008a00;strokeColor=#005700;" edge="1" parent="1" source="AOzkv8vw9EmrJet9aBGr-3" target="AOzkv8vw9EmrJet9aBGr-2">
          <mxGeometry width="50" height="50" relative="1" as="geometry">
            <mxPoint x="70" y="550" as="sourcePoint" />
            <mxPoint x="120" y="500" as="targetPoint" />
            <Array as="points">
              <mxPoint x="190" y="510" />
              <mxPoint x="280" y="550" />
            </Array>
          </mxGeometry>
        </mxCell>
        <mxCell id="AOzkv8vw9EmrJet9aBGr-15" value="" style="endArrow=classic;startArrow=classic;html=1;rounded=0;exitX=0.5;exitY=0;exitDx=0;exitDy=0;exitPerimeter=0;curved=1;fillColor=#d80073;strokeColor=#A50040;" edge="1" parent="1" source="AOzkv8vw9EmrJet9aBGr-3" target="AOzkv8vw9EmrJet9aBGr-1">
          <mxGeometry width="50" height="50" relative="1" as="geometry">
            <mxPoint x="330" y="570" as="sourcePoint" />
            <mxPoint x="380" y="520" as="targetPoint" />
          </mxGeometry>
        </mxCell>
        <mxCell id="AOzkv8vw9EmrJet9aBGr-18" value="Register Client" style="ellipse;whiteSpace=wrap;html=1;strokeColor=#2D7600;align=center;verticalAlign=middle;fontFamily=Helvetica;fontSize=12;fontColor=#ffffff;fillColor=#60a917;" vertex="1" parent="1">
          <mxGeometry x="380" y="180" width="174.38" height="110" as="geometry" />
        </mxCell>
        <mxCell id="AOzkv8vw9EmrJet9aBGr-25" value="" style="endArrow=classic;html=1;rounded=0;entryX=0.5;entryY=0;entryDx=0;entryDy=0;exitX=0.5;exitY=1;exitDx=0;exitDy=0;curved=1;dashed=1;fillColor=#d80073;strokeColor=#A50040;" edge="1" parent="1" source="AOzkv8vw9EmrJet9aBGr-18" target="AOzkv8vw9EmrJet9aBGr-2">
          <mxGeometry width="50" height="50" relative="1" as="geometry">
            <mxPoint x="320" y="490" as="sourcePoint" />
            <mxPoint x="370" y="440" as="targetPoint" />
          </mxGeometry>
        </mxCell>
        <mxCell id="AOzkv8vw9EmrJet9aBGr-30" style="edgeStyle=orthogonalEdgeStyle;rounded=0;orthogonalLoop=1;jettySize=auto;html=1;exitX=0.5;exitY=0;exitDx=0;exitDy=0;entryX=0.5;entryY=1;entryDx=0;entryDy=0;curved=1;dashed=1;fillColor=#d80073;strokeColor=#A50040;" edge="1" parent="1" source="AOzkv8vw9EmrJet9aBGr-26" target="AOzkv8vw9EmrJet9aBGr-2">
          <mxGeometry relative="1" as="geometry" />
        </mxCell>
        <mxCell id="AOzkv8vw9EmrJet9aBGr-26" value="Register Medicament" style="ellipse;whiteSpace=wrap;html=1;strokeColor=#2D7600;align=center;verticalAlign=middle;fontFamily=Helvetica;fontSize=12;fontColor=#ffffff;fillColor=#60a917;" vertex="1" parent="1">
          <mxGeometry x="190" y="660" width="174.38" height="110" as="geometry" />
        </mxCell>
        <mxCell id="AOzkv8vw9EmrJet9aBGr-28" value="" style="endArrow=classic;html=1;rounded=0;entryX=0;entryY=0.5;entryDx=0;entryDy=0;curved=1;exitX=0.5;exitY=0.5;exitDx=0;exitDy=0;exitPerimeter=0;fillColor=#008a00;strokeColor=#005700;" edge="1" parent="1" source="AOzkv8vw9EmrJet9aBGr-3" target="AOzkv8vw9EmrJet9aBGr-26">
          <mxGeometry width="50" height="50" relative="1" as="geometry">
            <mxPoint x="120" y="670" as="sourcePoint" />
            <mxPoint x="170" y="620" as="targetPoint" />
            <Array as="points">
              <mxPoint x="170" y="520" />
              <mxPoint x="140" y="680" />
            </Array>
          </mxGeometry>
        </mxCell>
        <mxCell id="AOzkv8vw9EmrJet9aBGr-29" value="" style="endArrow=classic;html=1;rounded=0;exitX=1;exitY=0.5;exitDx=0;exitDy=0;entryX=0;entryY=0.5;entryDx=0;entryDy=0;dashed=1;curved=1;fillColor=#d80073;strokeColor=#A50040;" edge="1" parent="1" source="AOzkv8vw9EmrJet9aBGr-26" target="AOzkv8vw9EmrJet9aBGr-31">
          <mxGeometry width="50" height="50" relative="1" as="geometry">
            <mxPoint x="364.38" y="700" as="sourcePoint" />
            <mxPoint x="390" y="620" as="targetPoint" />
          </mxGeometry>
        </mxCell>
        <mxCell id="AOzkv8vw9EmrJet9aBGr-31" value="&amp;nbsp;Management Stock" style="ellipse;whiteSpace=wrap;html=1;strokeColor=#A50040;align=center;verticalAlign=middle;fontFamily=Helvetica;fontSize=12;fontColor=#ffffff;fillColor=#d80073;" vertex="1" parent="1">
          <mxGeometry x="410" y="710" width="174.38" height="110" as="geometry" />
        </mxCell>
        <mxCell id="AOzkv8vw9EmrJet9aBGr-32" value="Orfonnance" style="ellipse;whiteSpace=wrap;html=1;strokeColor=#2D7600;align=center;verticalAlign=middle;fontFamily=Helvetica;fontSize=12;fontColor=#ffffff;fillColor=#60a917;" vertex="1" parent="1">
          <mxGeometry x="220" y="370" width="174.38" height="110" as="geometry" />
        </mxCell>
        <mxCell id="AOzkv8vw9EmrJet9aBGr-34" value="" style="endArrow=classic;startArrow=classic;html=1;rounded=0;exitX=0.5;exitY=0.5;exitDx=0;exitDy=0;exitPerimeter=0;entryX=0;entryY=0.5;entryDx=0;entryDy=0;curved=1;fillColor=#008a00;strokeColor=#005700;" edge="1" parent="1" source="AOzkv8vw9EmrJet9aBGr-3" target="AOzkv8vw9EmrJet9aBGr-32">
          <mxGeometry width="50" height="50" relative="1" as="geometry">
            <mxPoint x="180" y="490" as="sourcePoint" />
            <mxPoint x="230" y="440" as="targetPoint" />
            <Array as="points">
              <mxPoint x="160" y="500" />
              <mxPoint x="190" y="430" />
            </Array>
          </mxGeometry>
        </mxCell>
        <mxCell id="AOzkv8vw9EmrJet9aBGr-35" value="" style="endArrow=classic;startArrow=classic;html=1;rounded=0;exitX=1;exitY=0.5;exitDx=0;exitDy=0;entryX=0;entryY=0.5;entryDx=0;entryDy=0;curved=1;fillColor=#008a00;strokeColor=#005700;" edge="1" parent="1" source="AOzkv8vw9EmrJet9aBGr-32" target="AOzkv8vw9EmrJet9aBGr-2">
          <mxGeometry width="50" height="50" relative="1" as="geometry">
            <mxPoint x="400" y="470" as="sourcePoint" />
            <mxPoint x="450" y="420" as="targetPoint" />
            <Array as="points">
              <mxPoint x="420" y="460" />
              <mxPoint x="380" y="500" />
            </Array>
          </mxGeometry>
        </mxCell>
        <mxCell id="AOzkv8vw9EmrJet9aBGr-37" value="Register Doctor" style="ellipse;whiteSpace=wrap;html=1;strokeColor=#2D7600;align=center;verticalAlign=middle;fontFamily=Helvetica;fontSize=12;fontColor=#ffffff;fillColor=#60a917;" vertex="1" parent="1">
          <mxGeometry x="190" y="70" width="174.38" height="110" as="geometry" />
        </mxCell>
        <mxCell id="AOzkv8vw9EmrJet9aBGr-38" value="" style="endArrow=classic;html=1;rounded=0;entryX=0;entryY=0.5;entryDx=0;entryDy=0;exitX=0.5;exitY=0.5;exitDx=0;exitDy=0;exitPerimeter=0;curved=1;fillColor=#008a00;strokeColor=#005700;" edge="1" parent="1" source="AOzkv8vw9EmrJet9aBGr-3" target="AOzkv8vw9EmrJet9aBGr-37">
          <mxGeometry width="50" height="50" relative="1" as="geometry">
            <mxPoint x="110" y="210" as="sourcePoint" />
            <mxPoint x="160" y="160" as="targetPoint" />
            <Array as="points">
              <mxPoint x="120" y="490" />
              <mxPoint x="130" y="370" />
              <mxPoint x="130" y="120" />
            </Array>
          </mxGeometry>
        </mxCell>
        <mxCell id="AOzkv8vw9EmrJet9aBGr-39" value="" style="endArrow=classic;html=1;rounded=0;entryX=0;entryY=0.5;entryDx=0;entryDy=0;curved=1;exitX=0.5;exitY=0.5;exitDx=0;exitDy=0;exitPerimeter=0;fillColor=#008a00;strokeColor=#005700;" edge="1" parent="1" source="AOzkv8vw9EmrJet9aBGr-3" target="AOzkv8vw9EmrJet9aBGr-18">
          <mxGeometry width="50" height="50" relative="1" as="geometry">
            <mxPoint x="90" y="510" as="sourcePoint" />
            <mxPoint x="370" y="240" as="targetPoint" />
            <Array as="points">
              <mxPoint x="160" y="490" />
              <mxPoint x="180" y="300" />
              <mxPoint x="270" y="230" />
            </Array>
          </mxGeometry>
        </mxCell>
        <mxCell id="AOzkv8vw9EmrJet9aBGr-40" value="" style="endArrow=classic;html=1;rounded=0;entryX=0.5;entryY=1;entryDx=0;entryDy=0;exitX=0.5;exitY=0;exitDx=0;exitDy=0;curved=1;dashed=1;fillColor=#d80073;strokeColor=#A50040;" edge="1" parent="1" source="AOzkv8vw9EmrJet9aBGr-32" target="AOzkv8vw9EmrJet9aBGr-37">
          <mxGeometry width="50" height="50" relative="1" as="geometry">
            <mxPoint x="290" y="360" as="sourcePoint" />
            <mxPoint x="340" y="310" as="targetPoint" />
          </mxGeometry>
        </mxCell>
        <mxCell id="AOzkv8vw9EmrJet9aBGr-42" value="" style="endArrow=classic;startArrow=classic;html=1;rounded=0;entryX=0.5;entryY=1;entryDx=0;entryDy=0;exitX=0.5;exitY=0;exitDx=0;exitDy=0;dashed=1;curved=1;fillColor=#d80073;strokeColor=#A50040;" edge="1" parent="1" source="AOzkv8vw9EmrJet9aBGr-31" target="AOzkv8vw9EmrJet9aBGr-2">
          <mxGeometry width="50" height="50" relative="1" as="geometry">
            <mxPoint x="510" y="690" as="sourcePoint" />
            <mxPoint x="560" y="640" as="targetPoint" />
          </mxGeometry>
        </mxCell>
        <mxCell id="AOzkv8vw9EmrJet9aBGr-43" value="Doctor" style="shape=umlActor;verticalLabelPosition=bottom;verticalAlign=top;html=1;" vertex="1" parent="1">
          <mxGeometry x="404.38" y="20" width="30" height="60" as="geometry" />
        </mxCell>
        <mxCell id="AOzkv8vw9EmrJet9aBGr-44" value="" style="endArrow=none;dashed=1;html=1;rounded=0;entryX=0.5;entryY=0.5;entryDx=0;entryDy=0;entryPerimeter=0;exitX=1;exitY=0;exitDx=0;exitDy=0;fillColor=#1ba1e2;strokeColor=#006EAF;" edge="1" parent="1" source="AOzkv8vw9EmrJet9aBGr-37" target="AOzkv8vw9EmrJet9aBGr-43">
          <mxGeometry width="50" height="50" relative="1" as="geometry">
            <mxPoint x="370" y="180" as="sourcePoint" />
            <mxPoint x="420" y="130" as="targetPoint" />
          </mxGeometry>
        </mxCell>
        <mxCell id="AOzkv8vw9EmrJet9aBGr-46" value="Client" style="shape=umlActor;verticalLabelPosition=bottom;verticalAlign=top;html=1;outlineConnect=0;" vertex="1" parent="1">
          <mxGeometry x="570" y="80" width="30" height="60" as="geometry" />
        </mxCell>
        <mxCell id="AOzkv8vw9EmrJet9aBGr-48" value="" style="endArrow=none;dashed=1;html=1;dashPattern=1 3;strokeWidth=2;rounded=0;exitX=0.5;exitY=0;exitDx=0;exitDy=0;entryX=0.5;entryY=0.5;entryDx=0;entryDy=0;entryPerimeter=0;fillColor=#1ba1e2;strokeColor=#006EAF;" edge="1" parent="1" source="AOzkv8vw9EmrJet9aBGr-18" target="AOzkv8vw9EmrJet9aBGr-46">
          <mxGeometry width="50" height="50" relative="1" as="geometry">
            <mxPoint x="470" y="170" as="sourcePoint" />
            <mxPoint x="520" y="120" as="targetPoint" />
          </mxGeometry>
        </mxCell>
      </root>
    </mxGraphModel>
  </diagram>
</mxfile>
